<?xml version="1.0" encoding="UTF-8" standalone="no"?>
<!DOCTYPE svg PUBLIC "-//W3C//DTD SVG 1.1//EN"
 "http://www.w3.org/Graphics/SVG/1.1/DTD/svg11.dtd">
<!-- Generated by graphviz version 3.0.0 (20220226.1711)
 -->
<!-- Title: dependency&#45;cruiser output Pages: 1 -->
<svg width="586pt" height="308pt"
 viewBox="0.00 0.00 586.00 308.00" xmlns="http://www.w3.org/2000/svg" xmlns:xlink="http://www.w3.org/1999/xlink">
<g id="graph0" class="graph" transform="scale(1 1) rotate(0) translate(4 304)">
<title>dependency&#45;cruiser output</title>
<polygon fill="white" stroke="transparent" points="-4,4 -4,-304 582,-304 582,4 -4,4"/>
<g id="clust1" class="cluster">
<title>cluster_src</title>
<path fill="#ffffff" stroke="black" stroke-width="2" d="M20,-8C20,-8 558,-8 558,-8 564,-8 570,-14 570,-20 570,-20 570,-280 570,-280 570,-286 564,-292 558,-292 558,-292 20,-292 20,-292 14,-292 8,-286 8,-280 8,-280 8,-20 8,-20 8,-14 14,-8 20,-8"/>
<text text-anchor="middle" x="289" y="-280.8" font-family="Helvetica,sans-Serif" font-weight="bold" font-size="9.00">src</text>
</g>
<g id="clust2" class="cluster">
<title>cluster_src/assets</title>
<path fill="#ffffff" stroke="black" stroke-width="2" d="M295,-16C295,-16 357,-16 357,-16 363,-16 369,-22 369,-28 369,-28 369,-90 369,-90 369,-96 363,-102 357,-102 357,-102 295,-102 295,-102 289,-102 283,-96 283,-90 283,-90 283,-28 283,-28 283,-22 289,-16 295,-16"/>
<text text-anchor="middle" x="326" y="-90.8" font-family="Helvetica,sans-Serif" font-weight="bold" font-size="9.00">assets</text>
</g>
<g id="clust3" class="cluster">
<title>cluster_src/assets/images</title>
<path fill="#ffffff" stroke="black" stroke-width="2" d="M303,-24C303,-24 349,-24 349,-24 355,-24 361,-30 361,-36 361,-36 361,-64 361,-64 361,-70 355,-76 349,-76 349,-76 303,-76 303,-76 297,-76 291,-70 291,-64 291,-64 291,-36 291,-36 291,-30 297,-24 303,-24"/>
<text text-anchor="middle" x="326" y="-64.8" font-family="Helvetica,sans-Serif" font-weight="bold" font-size="9.00">images</text>
</g>
<g id="clust4" class="cluster">
<title>cluster_src/components</title>
<path fill="#ffffff" stroke="black" stroke-width="2" d="M287,-110C287,-110 550,-110 550,-110 556,-110 562,-116 562,-122 562,-122 562,-254 562,-254 562,-260 556,-266 550,-266 550,-266 287,-266 287,-266 281,-266 275,-260 275,-254 275,-254 275,-122 275,-122 275,-116 281,-110 287,-110"/>
<text text-anchor="middle" x="418.5" y="-254.8" font-family="Helvetica,sans-Serif" font-weight="bold" font-size="9.00">components</text>
</g>
<g id="clust5" class="cluster">
<title>cluster_src/components/Button</title>
<path fill="#ffffff" stroke="black" stroke-width="2" d="M389,-188C389,-188 435,-188 435,-188 441,-188 447,-194 447,-200 447,-200 447,-228 447,-228 447,-234 441,-240 435,-240 435,-240 389,-240 389,-240 383,-240 377,-234 377,-228 377,-228 377,-200 377,-200 377,-194 383,-188 389,-188"/>
<text text-anchor="middle" x="412" y="-228.8" font-family="Helvetica,sans-Serif" font-weight="bold" font-size="9.00">Button</text>
</g>
<g id="clust6" class="cluster">
<title>cluster_src/components/OddParent</title>
<path fill="#ffffff" stroke="black" stroke-width="2" d="M295,-123C295,-123 357,-123 357,-123 363,-123 369,-129 369,-135 369,-135 369,-163 369,-163 369,-169 363,-175 357,-175 357,-175 295,-175 295,-175 289,-175 283,-169 283,-163 283,-163 283,-135 283,-135 283,-129 289,-123 295,-123"/>
<text text-anchor="middle" x="326" y="-163.8" font-family="Helvetica,sans-Serif" font-weight="bold" font-size="9.00">OddParent</text>
</g>
<g id="clust7" class="cluster">
<title>cluster_src/components/Parent</title>
<path fill="#ffffff" stroke="black" stroke-width="2" d="M303,-183C303,-183 349,-183 349,-183 355,-183 361,-189 361,-195 361,-195 361,-223 361,-223 361,-229 355,-235 349,-235 349,-235 303,-235 303,-235 297,-235 291,-229 291,-223 291,-223 291,-195 291,-195 291,-189 297,-183 303,-183"/>
<text text-anchor="middle" x="326" y="-223.8" font-family="Helvetica,sans-Serif" font-weight="bold" font-size="9.00">Parent</text>
</g>
<g id="clust8" class="cluster">
<title>cluster_src/components/Title</title>
<path fill="#ffffff" stroke="black" stroke-width="2" d="M389,-128C389,-128 435,-128 435,-128 441,-128 447,-134 447,-140 447,-140 447,-168 447,-168 447,-174 441,-180 435,-180 435,-180 389,-180 389,-180 383,-180 377,-174 377,-168 377,-168 377,-140 377,-140 377,-134 383,-128 389,-128"/>
<text text-anchor="middle" x="412" y="-168.8" font-family="Helvetica,sans-Serif" font-weight="bold" font-size="9.00">Title</text>
</g>
<g id="clust9" class="cluster">
<title>cluster_src/components/emoji</title>
<path fill="#ffffff" stroke="black" stroke-width="2" d="M467,-138C467,-138 542,-138 542,-138 548,-138 554,-144 554,-150 554,-150 554,-208 554,-208 554,-214 548,-220 542,-220 542,-220 467,-220 467,-220 461,-220 455,-214 455,-208 455,-208 455,-150 455,-150 455,-144 461,-138 467,-138"/>
<text text-anchor="middle" x="504.5" y="-208.8" font-family="Helvetica,sans-Serif" font-weight="bold" font-size="9.00">emoji</text>
</g>
<g id="clust10" class="cluster">
<title>cluster_src/views</title>
<path fill="#ffffff" stroke="black" stroke-width="2" d="M209,-123C209,-123 255,-123 255,-123 261,-123 267,-129 267,-135 267,-135 267,-163 267,-163 267,-169 261,-175 255,-175 255,-175 209,-175 209,-175 203,-175 197,-169 197,-163 197,-163 197,-135 197,-135 197,-129 203,-123 209,-123"/>
<text text-anchor="middle" x="232" y="-163.8" font-family="Helvetica,sans-Serif" font-weight="bold" font-size="9.00">views</text>
</g>
<!-- src/App.css -->
<g id="node1" class="node">
<title>src/App.css</title>
<g id="a_node1"><a xlink:href="src/App.css" xlink:title="App.css">
<path fill="#ffffcc" stroke="black" d="M253,-115C253,-115 211,-115 211,-115 208,-115 205,-112 205,-109 205,-109 205,-103 205,-103 205,-100 208,-97 211,-97 211,-97 253,-97 253,-97 256,-97 259,-100 259,-103 259,-103 259,-109 259,-109 259,-112 256,-115 253,-115"/>
<text text-anchor="start" x="215.5" y="-103.8" font-family="Helvetica,sans-Serif" font-size="9.00">App.css</text>
</a>
</g>
</g>
<!-- src/App.js -->
<g id="node2" class="node">
<title>src/App.js</title>
<g id="a_node2"><a xlink:href="src/App.js" xlink:title="App.js">
<path fill="#ffffcc" stroke="black" d="M164.5,-132C164.5,-132 122.5,-132 122.5,-132 119.5,-132 116.5,-129 116.5,-126 116.5,-126 116.5,-120 116.5,-120 116.5,-117 119.5,-114 122.5,-114 122.5,-114 164.5,-114 164.5,-114 167.5,-114 170.5,-117 170.5,-120 170.5,-120 170.5,-126 170.5,-126 170.5,-129 167.5,-132 164.5,-132"/>
<text text-anchor="start" x="130.5" y="-120.8" font-family="Helvetica,sans-Serif" font-size="9.00">App.js</text>
</a>
</g>
</g>
<!-- src/App.js&#45;&gt;src/App.css -->
<g id="edge1" class="edge">
<title>src/App.js&#45;&gt;src/App.css</title>
<path fill="none" stroke="#000000" stroke-width="2" stroke-opacity="0.200000" d="M170.92,-117.81C179.73,-116.08 189.63,-114.13 198.82,-112.32"/>
<polygon fill="#000000" fill-opacity="0.200000" stroke="#000000" stroke-width="2" stroke-opacity="0.200000" points="199.26,-114.38 204.74,-111.16 198.45,-110.26 199.26,-114.38"/>
</g>
<!-- src/views/Home.js -->
<g id="node3" class="node">
<title>src/views/Home.js</title>
<g id="a_node3"><a xlink:href="src/views/Home.js" xlink:title="Home.js">
<path fill="#ffffcc" stroke="black" d="M253,-149C253,-149 211,-149 211,-149 208,-149 205,-146 205,-143 205,-143 205,-137 205,-137 205,-134 208,-131 211,-131 211,-131 253,-131 253,-131 256,-131 259,-134 259,-137 259,-137 259,-143 259,-143 259,-146 256,-149 253,-149"/>
<text text-anchor="start" x="215" y="-137.8" font-family="Helvetica,sans-Serif" font-size="9.00">Home.js</text>
</a>
</g>
</g>
<!-- src/App.js&#45;&gt;src/views/Home.js -->
<g id="edge2" class="edge">
<title>src/App.js&#45;&gt;src/views/Home.js</title>
<path fill="none" stroke="#000000" stroke-width="2" stroke-opacity="0.200000" d="M170.92,-128.19C179.73,-129.92 189.63,-131.87 198.82,-133.68"/>
<polygon fill="#000000" fill-opacity="0.200000" stroke="#000000" stroke-width="2" stroke-opacity="0.200000" points="198.45,-135.74 204.74,-134.84 199.26,-131.62 198.45,-135.74"/>
</g>
<!-- src/assets/images/logo.svg -->
<g id="node5" class="node">
<title>src/assets/images/logo.svg</title>
<g id="a_node5"><a xlink:href="src/assets/images/logo.svg" xlink:title="logo.svg">
<path fill="#ffffcc" stroke="black" d="M347,-50C347,-50 305,-50 305,-50 302,-50 299,-47 299,-44 299,-44 299,-38 299,-38 299,-35 302,-32 305,-32 305,-32 347,-32 347,-32 350,-32 353,-35 353,-38 353,-38 353,-44 353,-44 353,-47 350,-50 347,-50"/>
<text text-anchor="start" x="308.5" y="-38.8" font-family="Helvetica,sans-Serif" font-size="9.00">logo.svg</text>
</a>
</g>
</g>
<!-- src/views/Home.js&#45;&gt;src/assets/images/logo.svg -->
<g id="edge13" class="edge">
<title>src/views/Home.js&#45;&gt;src/assets/images/logo.svg</title>
<path fill="none" stroke="#000000" stroke-width="2" stroke-opacity="0.200000" d="M259.16,-131.94C261.95,-130.52 264.62,-128.89 267,-127 291.45,-107.58 309.39,-75.01 318.42,-56.02"/>
<polygon fill="#000000" fill-opacity="0.200000" stroke="#000000" stroke-width="2" stroke-opacity="0.200000" points="320.53,-56.46 321.14,-50.13 316.71,-54.7 320.53,-56.46"/>
</g>
<!-- src/components/OddParent/OddParent.js -->
<g id="node8" class="node">
<title>src/components/OddParent/OddParent.js</title>
<g id="a_node8"><a xlink:href="src/components/OddParent/OddParent.js" xlink:title="OddParent.js">
<path fill="#ffffcc" stroke="black" d="M355,-149C355,-149 297,-149 297,-149 294,-149 291,-146 291,-143 291,-143 291,-137 291,-137 291,-134 294,-131 297,-131 297,-131 355,-131 355,-131 358,-131 361,-134 361,-137 361,-137 361,-143 361,-143 361,-146 358,-149 355,-149"/>
<text text-anchor="start" x="299" y="-137.8" font-family="Helvetica,sans-Serif" font-size="9.00">OddParent.js</text>
</a>
</g>
</g>
<!-- src/views/Home.js&#45;&gt;src/components/OddParent/OddParent.js -->
<g id="edge14" class="edge">
<title>src/views/Home.js&#45;&gt;src/components/OddParent/OddParent.js</title>
<path fill="none" stroke="#000000" stroke-width="2" stroke-opacity="0.200000" d="M259.12,-140C267.07,-140 276,-140 284.66,-140"/>
<polygon fill="#000000" fill-opacity="0.200000" stroke="#000000" stroke-width="2" stroke-opacity="0.200000" points="284.9,-142.1 290.9,-140 284.9,-137.9 284.9,-142.1"/>
</g>
<!-- src/components/Parent/Parent.js -->
<g id="node11" class="node">
<title>src/components/Parent/Parent.js</title>
<g id="a_node11"><a xlink:href="src/components/Parent/Parent.js" xlink:title="Parent.js">
<path fill="#ffffcc" stroke="black" d="M347,-209C347,-209 305,-209 305,-209 302,-209 299,-206 299,-203 299,-203 299,-197 299,-197 299,-194 302,-191 305,-191 305,-191 347,-191 347,-191 350,-191 353,-194 353,-197 353,-197 353,-203 353,-203 353,-206 350,-209 347,-209"/>
<text text-anchor="start" x="307.5" y="-197.8" font-family="Helvetica,sans-Serif" font-size="9.00">Parent.js</text>
</a>
</g>
</g>
<!-- src/views/Home.js&#45;&gt;src/components/Parent/Parent.js -->
<g id="edge15" class="edge">
<title>src/views/Home.js&#45;&gt;src/components/Parent/Parent.js</title>
<path fill="none" stroke="#000000" stroke-width="2" stroke-opacity="0.200000" d="M241.33,-149.05C249.35,-157.37 262.13,-169.66 275,-178 281.09,-181.95 288.01,-185.5 294.72,-188.55"/>
<polygon fill="#000000" fill-opacity="0.200000" stroke="#000000" stroke-width="2" stroke-opacity="0.200000" points="293.95,-190.5 300.28,-190.98 295.63,-186.65 293.95,-190.5"/>
</g>
<!-- src/App.test.js -->
<g id="node4" class="node">
<title>src/App.test.js</title>
<g id="a_node4"><a xlink:href="src/App.test.js" xlink:title="App.test.js">
<path fill="#ffffcc" stroke="black" d="M74,-132C74,-132 27,-132 27,-132 24,-132 21,-129 21,-126 21,-126 21,-120 21,-120 21,-117 24,-114 27,-114 27,-114 74,-114 74,-114 77,-114 80,-117 80,-120 80,-120 80,-126 80,-126 80,-129 77,-132 74,-132"/>
<text text-anchor="start" x="29" y="-120.8" font-family="Helvetica,sans-Serif" font-size="9.00">App.test.js</text>
</a>
</g>
</g>
<!-- src/App.test.js&#45;&gt;src/App.js -->
<g id="edge3" class="edge">
<title>src/App.test.js&#45;&gt;src/App.js</title>
<path fill="none" stroke="#000000" stroke-width="2" stroke-opacity="0.200000" d="M80.29,-123C89.78,-123 100.38,-123 110.11,-123"/>
<polygon fill="#000000" fill-opacity="0.200000" stroke="#000000" stroke-width="2" stroke-opacity="0.200000" points="110.36,-125.1 116.36,-123 110.36,-120.9 110.36,-125.1"/>
</g>
<!-- src/components/Button/Button.js -->
<g id="node6" class="node">
<title>src/components/Button/Button.js</title>
<g id="a_node6"><a xlink:href="src/components/Button/Button.js" xlink:title="Button.js">
<path fill="#ffffcc" stroke="black" d="M433,-214C433,-214 391,-214 391,-214 388,-214 385,-211 385,-208 385,-208 385,-202 385,-202 385,-199 388,-196 391,-196 391,-196 433,-196 433,-196 436,-196 439,-199 439,-202 439,-202 439,-208 439,-208 439,-211 436,-214 433,-214"/>
<text text-anchor="start" x="394" y="-202.8" font-family="Helvetica,sans-Serif" font-size="9.00">Button.js</text>
</a>
</g>
</g>
<!-- src/components/emoji/EmojiCheck.js -->
<g id="node7" class="node">
<title>src/components/emoji/EmojiCheck.js</title>
<g id="a_node7"><a xlink:href="src/components/emoji/EmojiCheck.js" xlink:title="EmojiCheck.js">
<path fill="#ffffcc" stroke="black" d="M536,-194C536,-194 473,-194 473,-194 470,-194 467,-191 467,-188 467,-188 467,-182 467,-182 467,-179 470,-176 473,-176 473,-176 536,-176 536,-176 539,-176 542,-179 542,-182 542,-182 542,-188 542,-188 542,-191 539,-194 536,-194"/>
<text text-anchor="start" x="475" y="-182.8" font-family="Helvetica,sans-Serif" font-size="9.00">EmojiCheck.js</text>
</a>
</g>
</g>
<!-- src/components/Button/Button.js&#45;&gt;src/components/emoji/EmojiCheck.js -->
<g id="edge4" class="edge">
<title>src/components/Button/Button.js&#45;&gt;src/components/emoji/EmojiCheck.js</title>
<path fill="none" stroke="#000000" stroke-width="2" stroke-opacity="0.200000" d="M439.18,-199.22C445.95,-197.72 453.41,-196.07 460.79,-194.44"/>
<polygon fill="#000000" fill-opacity="0.200000" stroke="#000000" stroke-width="2" stroke-opacity="0.200000" points="461.54,-196.42 466.95,-193.08 460.64,-192.32 461.54,-196.42"/>
</g>
<!-- src/components/OddParent/OddParent.js&#45;&gt;src/components/Button/Button.js -->
<g id="edge5" class="edge">
<title>src/components/OddParent/OddParent.js&#45;&gt;src/components/Button/Button.js</title>
<path fill="none" stroke="#000000" stroke-width="2" stroke-opacity="0.200000" d="M337,-149.32C346.86,-158.32 362.52,-172.16 377,-183 381.29,-186.21 386.04,-189.46 390.59,-192.43"/>
<polygon fill="#000000" fill-opacity="0.200000" stroke="#000000" stroke-width="2" stroke-opacity="0.200000" points="389.62,-194.31 395.81,-195.79 391.9,-190.78 389.62,-194.31"/>
</g>
<!-- src/components/emoji/EmojiWarning.js -->
<g id="node9" class="node">
<title>src/components/emoji/EmojiWarning.js</title>
<g id="a_node9"><a xlink:href="src/components/emoji/EmojiWarning.js" xlink:title="EmojiWarning.js">
<path fill="#ffffcc" stroke="black" d="M540,-164C540,-164 469,-164 469,-164 466,-164 463,-161 463,-158 463,-158 463,-152 463,-152 463,-149 466,-146 469,-146 469,-146 540,-146 540,-146 543,-146 546,-149 546,-152 546,-152 546,-158 546,-158 546,-161 543,-164 540,-164"/>
<text text-anchor="start" x="471" y="-152.8" font-family="Helvetica,sans-Serif" font-size="9.00">EmojiWarning.js</text>
</a>
</g>
</g>
<!-- src/components/OddParent/OddParent.js&#45;&gt;src/components/emoji/EmojiWarning.js -->
<g id="edge6" class="edge">
<title>src/components/OddParent/OddParent.js&#45;&gt;src/components/emoji/EmojiWarning.js</title>
<path fill="none" stroke="#000000" stroke-width="2" stroke-opacity="0.200000" d="M351.86,-130.99C359.78,-128.54 368.66,-126.22 377,-125 407.78,-120.48 416.81,-117.48 447,-125 460.77,-128.43 474.86,-135.9 485.53,-142.53"/>
<polygon fill="#000000" fill-opacity="0.200000" stroke="#000000" stroke-width="2" stroke-opacity="0.200000" points="484.59,-144.43 490.78,-145.9 486.86,-140.89 484.59,-144.43"/>
</g>
<!-- src/components/Title/Title.js -->
<g id="node10" class="node">
<title>src/components/Title/Title.js</title>
<g id="a_node10"><a xlink:href="src/components/Title/Title.js" xlink:title="Title.js">
<path fill="#ffffcc" stroke="black" d="M433,-154C433,-154 391,-154 391,-154 388,-154 385,-151 385,-148 385,-148 385,-142 385,-142 385,-139 388,-136 391,-136 391,-136 433,-136 433,-136 436,-136 439,-139 439,-142 439,-142 439,-148 439,-148 439,-151 436,-154 433,-154"/>
<text text-anchor="start" x="399" y="-142.8" font-family="Helvetica,sans-Serif" font-size="9.00">Title.js</text>
</a>
</g>
</g>
<!-- src/components/OddParent/OddParent.js&#45;&gt;src/components/Title/Title.js -->
<g id="edge7" class="edge">
<title>src/components/OddParent/OddParent.js&#45;&gt;src/components/Title/Title.js</title>
<path fill="none" stroke="#000000" stroke-width="2" stroke-opacity="0.200000" d="M361.17,-142.03C366.97,-142.38 372.98,-142.74 378.73,-143.08"/>
<polygon fill="#000000" fill-opacity="0.200000" stroke="#000000" stroke-width="2" stroke-opacity="0.200000" points="378.74,-145.18 384.85,-143.44 378.99,-140.99 378.74,-145.18"/>
</g>
<!-- src/components/Parent/Parent.js&#45;&gt;src/components/Button/Button.js -->
<g id="edge8" class="edge">
<title>src/components/Parent/Parent.js&#45;&gt;src/components/Button/Button.js</title>
<path fill="none" stroke="#000000" stroke-width="2" stroke-opacity="0.200000" d="M353.12,-201.55C361.18,-202.03 370.15,-202.57 378.58,-203.07"/>
<polygon fill="#000000" fill-opacity="0.200000" stroke="#000000" stroke-width="2" stroke-opacity="0.200000" points="378.78,-205.19 384.9,-203.45 379.03,-200.99 378.78,-205.19"/>
</g>
<!-- src/components/Parent/Parent.js&#45;&gt;src/components/Title/Title.js -->
<g id="edge9" class="edge">
<title>src/components/Parent/Parent.js&#45;&gt;src/components/Title/Title.js</title>
<path fill="none" stroke="#000000" stroke-width="2" stroke-opacity="0.200000" d="M346.24,-190.86C353.53,-187.15 361.81,-182.65 369,-178 378.11,-172.11 387.67,-164.71 395.36,-158.41"/>
<polygon fill="#000000" fill-opacity="0.200000" stroke="#000000" stroke-width="2" stroke-opacity="0.200000" points="397.08,-159.71 400.35,-154.26 394.4,-156.48 397.08,-159.71"/>
</g>
<!-- src/index.css -->
<g id="node12" class="node">
<title>src/index.css</title>
<g id="a_node12"><a xlink:href="src/index.css" xlink:title="index.css">
<path fill="#ffffcc" stroke="black" d="M165,-162C165,-162 122,-162 122,-162 119,-162 116,-159 116,-156 116,-156 116,-150 116,-150 116,-147 119,-144 122,-144 122,-144 165,-144 165,-144 168,-144 171,-147 171,-150 171,-150 171,-156 171,-156 171,-159 168,-162 165,-162"/>
<text text-anchor="start" x="124" y="-150.8" font-family="Helvetica,sans-Serif" font-size="9.00">index.css</text>
</a>
</g>
</g>
<!-- src/index.js -->
<g id="node13" class="node">
<title>src/index.js</title>
<g id="a_node13"><a xlink:href="src/index.js" xlink:title="index.js">
<path fill="#ffffcc" stroke="black" d="M71.5,-162C71.5,-162 29.5,-162 29.5,-162 26.5,-162 23.5,-159 23.5,-156 23.5,-156 23.5,-150 23.5,-150 23.5,-147 26.5,-144 29.5,-144 29.5,-144 71.5,-144 71.5,-144 74.5,-144 77.5,-147 77.5,-150 77.5,-150 77.5,-156 77.5,-156 77.5,-159 74.5,-162 71.5,-162"/>
<text text-anchor="start" x="34.5" y="-150.8" font-family="Helvetica,sans-Serif" font-size="9.00">index.js</text>
</a>
</g>
</g>
<!-- src/index.js&#45;&gt;src/App.js -->
<g id="edge10" class="edge">
<title>src/index.js&#45;&gt;src/App.js</title>
<path fill="none" stroke="#000000" stroke-width="2" stroke-opacity="0.200000" d="M77.82,-144.32C88.01,-140.96 99.76,-137.09 110.44,-133.57"/>
<polygon fill="#000000" fill-opacity="0.200000" stroke="#000000" stroke-width="2" stroke-opacity="0.200000" points="111.2,-135.53 116.24,-131.66 109.88,-131.54 111.2,-135.53"/>
</g>
<!-- src/index.js&#45;&gt;src/index.css -->
<g id="edge11" class="edge">
<title>src/index.js&#45;&gt;src/index.css</title>
<path fill="none" stroke="#000000" stroke-width="2" stroke-opacity="0.200000" d="M77.82,-153C87.83,-153 99.34,-153 109.86,-153"/>
<polygon fill="#000000" fill-opacity="0.200000" stroke="#000000" stroke-width="2" stroke-opacity="0.200000" points="109.92,-155.1 115.92,-153 109.92,-150.9 109.92,-155.1"/>
</g>
<!-- src/reportWebVitals.js -->
<g id="node14" class="node">
<title>src/reportWebVitals.js</title>
<g id="a_node14"><a xlink:href="src/reportWebVitals.js" xlink:title="reportWebVitals.js">
<path fill="#ffffcc" stroke="black" d="M183,-192C183,-192 104,-192 104,-192 101,-192 98,-189 98,-186 98,-186 98,-180 98,-180 98,-177 101,-174 104,-174 104,-174 183,-174 183,-174 186,-174 189,-177 189,-180 189,-180 189,-186 189,-186 189,-189 186,-192 183,-192"/>
<text text-anchor="start" x="106" y="-180.8" font-family="Helvetica,sans-Serif" font-size="9.00">reportWebVitals.js</text>
</a>
</g>
</g>
<!-- src/index.js&#45;&gt;src/reportWebVitals.js -->
<g id="edge12" class="edge">
<title>src/index.js&#45;&gt;src/reportWebVitals.js</title>
<path fill="none" stroke="#000000" stroke-width="2" stroke-opacity="0.200000" d="M77.82,-161.68C87.56,-164.89 98.74,-168.57 109.03,-171.97"/>
<polygon fill="#000000" fill-opacity="0.200000" stroke="#000000" stroke-width="2" stroke-opacity="0.200000" points="108.62,-174.04 114.97,-173.92 109.93,-170.05 108.62,-174.04"/>
</g>
<!-- src/setupTests.js -->
<g id="node15" class="node">
<title>src/setupTests.js</title>
<g id="a_node15"><a xlink:href="src/setupTests.js" xlink:title="setupTests.js">
<path fill="#ccffcc" stroke="black" d="M79,-79C79,-79 22,-79 22,-79 19,-79 16,-76 16,-73 16,-73 16,-67 16,-67 16,-64 19,-61 22,-61 22,-61 79,-61 79,-61 82,-61 85,-64 85,-67 85,-67 85,-73 85,-73 85,-76 82,-79 79,-79"/>
<text text-anchor="start" x="24" y="-67.8" font-family="Helvetica,sans-Serif" font-size="9.00">setupTests.js</text>
</a>
</g>
</g>
</g>
</svg>
