<?xml version="1.0" encoding="UTF-8" standalone="no"?>
<!DOCTYPE svg PUBLIC "-//W3C//DTD SVG 1.1//EN"
 "http://www.w3.org/Graphics/SVG/1.1/DTD/svg11.dtd">
<!-- Generated by graphviz version 3.0.0 (20220226.1711)
 -->
<!-- Title: dependency&#45;cruiser output Pages: 1 -->
<svg width="594pt" height="422pt"
 viewBox="0.00 0.00 594.00 422.00" xmlns="http://www.w3.org/2000/svg" xmlns:xlink="http://www.w3.org/1999/xlink">
<g id="graph0" class="graph" transform="scale(1 1) rotate(0) translate(4 418)">
<title>dependency&#45;cruiser output</title>
<polygon fill="white" stroke="transparent" points="-4,4 -4,-418 590,-418 590,4 -4,4"/>
<g id="clust1" class="cluster">
<title>cluster_components</title>
<path fill="#ffffff" stroke="black" stroke-width="2" d="M481.5,-8C481.5,-8 543.5,-8 543.5,-8 549.5,-8 555.5,-14 555.5,-20 555.5,-20 555.5,-82 555.5,-82 555.5,-88 549.5,-94 543.5,-94 543.5,-94 481.5,-94 481.5,-94 475.5,-94 469.5,-88 469.5,-82 469.5,-82 469.5,-20 469.5,-20 469.5,-14 475.5,-8 481.5,-8"/>
<text text-anchor="middle" x="512.5" y="-82.8" font-family="Helvetica,sans-Serif" font-weight="bold" font-size="9.00">components</text>
</g>
<g id="clust2" class="cluster">
<title>cluster_components/Button</title>
<path fill="#ffffff" stroke="black" stroke-width="2" d="M489.5,-16C489.5,-16 535.5,-16 535.5,-16 541.5,-16 547.5,-22 547.5,-28 547.5,-28 547.5,-56 547.5,-56 547.5,-62 541.5,-68 535.5,-68 535.5,-68 489.5,-68 489.5,-68 483.5,-68 477.5,-62 477.5,-56 477.5,-56 477.5,-28 477.5,-28 477.5,-22 483.5,-16 489.5,-16"/>
<text text-anchor="middle" x="512.5" y="-56.8" font-family="Helvetica,sans-Serif" font-weight="bold" font-size="9.00">Button</text>
</g>
<g id="clust3" class="cluster">
<title>cluster_src</title>
<path fill="#ffffff" stroke="black" stroke-width="2" d="M20,-102C20,-102 566,-102 566,-102 572,-102 578,-108 578,-114 578,-114 578,-394 578,-394 578,-400 572,-406 566,-406 566,-406 20,-406 20,-406 14,-406 8,-400 8,-394 8,-394 8,-114 8,-114 8,-108 14,-102 20,-102"/>
<text text-anchor="middle" x="293" y="-394.8" font-family="Helvetica,sans-Serif" font-weight="bold" font-size="9.00">src</text>
</g>
<g id="clust4" class="cluster">
<title>cluster_src/assets</title>
<path fill="#ffffff" stroke="black" stroke-width="2" d="M287,-110C287,-110 349,-110 349,-110 355,-110 361,-116 361,-122 361,-122 361,-184 361,-184 361,-190 355,-196 349,-196 349,-196 287,-196 287,-196 281,-196 275,-190 275,-184 275,-184 275,-122 275,-122 275,-116 281,-110 287,-110"/>
<text text-anchor="middle" x="318" y="-184.8" font-family="Helvetica,sans-Serif" font-weight="bold" font-size="9.00">assets</text>
</g>
<g id="clust5" class="cluster">
<title>cluster_src/assets/images</title>
<path fill="#ffffff" stroke="black" stroke-width="2" d="M295,-118C295,-118 341,-118 341,-118 347,-118 353,-124 353,-130 353,-130 353,-158 353,-158 353,-164 347,-170 341,-170 341,-170 295,-170 295,-170 289,-170 283,-164 283,-158 283,-158 283,-130 283,-130 283,-124 289,-118 295,-118"/>
<text text-anchor="middle" x="318" y="-158.8" font-family="Helvetica,sans-Serif" font-weight="bold" font-size="9.00">images</text>
</g>
<g id="clust6" class="cluster">
<title>cluster_src/components</title>
<path fill="#ffffff" stroke="black" stroke-width="2" d="M287,-204C287,-204 558,-204 558,-204 564,-204 570,-210 570,-216 570,-216 570,-368 570,-368 570,-374 564,-380 558,-380 558,-380 287,-380 287,-380 281,-380 275,-374 275,-368 275,-368 275,-216 275,-216 275,-210 281,-204 287,-204"/>
<text text-anchor="middle" x="422.5" y="-368.8" font-family="Helvetica,sans-Serif" font-weight="bold" font-size="9.00">components</text>
</g>
<g id="clust7" class="cluster">
<title>cluster_src/components/Button</title>
<path fill="#ffffff" stroke="black" stroke-width="2" d="M389,-292C389,-292 435,-292 435,-292 441,-292 447,-298 447,-304 447,-304 447,-332 447,-332 447,-338 441,-344 435,-344 435,-344 389,-344 389,-344 383,-344 377,-338 377,-332 377,-332 377,-304 377,-304 377,-298 383,-292 389,-292"/>
<text text-anchor="middle" x="412" y="-332.8" font-family="Helvetica,sans-Serif" font-weight="bold" font-size="9.00">Button</text>
</g>
<g id="clust8" class="cluster">
<title>cluster_src/components/OddParent</title>
<path fill="#ffffff" stroke="black" stroke-width="2" d="M381,-212C381,-212 443,-212 443,-212 449,-212 455,-218 455,-224 455,-224 455,-252 455,-252 455,-258 449,-264 443,-264 443,-264 381,-264 381,-264 375,-264 369,-258 369,-252 369,-252 369,-224 369,-224 369,-218 375,-212 381,-212"/>
<text text-anchor="middle" x="412" y="-252.8" font-family="Helvetica,sans-Serif" font-weight="bold" font-size="9.00">OddParent</text>
</g>
<g id="clust9" class="cluster">
<title>cluster_src/components/Parent</title>
<path fill="#ffffff" stroke="black" stroke-width="2" d="M295,-256C295,-256 341,-256 341,-256 347,-256 353,-262 353,-268 353,-268 353,-296 353,-296 353,-302 347,-308 341,-308 341,-308 295,-308 295,-308 289,-308 283,-302 283,-296 283,-296 283,-268 283,-268 283,-262 289,-256 295,-256"/>
<text text-anchor="middle" x="318" y="-296.8" font-family="Helvetica,sans-Serif" font-weight="bold" font-size="9.00">Parent</text>
</g>
<g id="clust10" class="cluster">
<title>cluster_src/components/Title</title>
<path fill="#ffffff" stroke="black" stroke-width="2" d="M489.5,-212C489.5,-212 535.5,-212 535.5,-212 541.5,-212 547.5,-218 547.5,-224 547.5,-224 547.5,-252 547.5,-252 547.5,-258 541.5,-264 535.5,-264 535.5,-264 489.5,-264 489.5,-264 483.5,-264 477.5,-258 477.5,-252 477.5,-252 477.5,-224 477.5,-224 477.5,-218 483.5,-212 489.5,-212"/>
<text text-anchor="middle" x="512.5" y="-252.8" font-family="Helvetica,sans-Serif" font-weight="bold" font-size="9.00">Title</text>
</g>
<g id="clust11" class="cluster">
<title>cluster_src/components/emoji</title>
<path fill="#ffffff" stroke="black" stroke-width="2" d="M475,-272C475,-272 550,-272 550,-272 556,-272 562,-278 562,-284 562,-284 562,-342 562,-342 562,-348 556,-354 550,-354 550,-354 475,-354 475,-354 469,-354 463,-348 463,-342 463,-342 463,-284 463,-284 463,-278 469,-272 475,-272"/>
<text text-anchor="middle" x="512.5" y="-342.8" font-family="Helvetica,sans-Serif" font-weight="bold" font-size="9.00">emoji</text>
</g>
<g id="clust12" class="cluster">
<title>cluster_src/views</title>
<path fill="#ffffff" stroke="black" stroke-width="2" d="M209,-212C209,-212 255,-212 255,-212 261,-212 267,-218 267,-224 267,-224 267,-252 267,-252 267,-258 261,-264 255,-264 255,-264 209,-264 209,-264 203,-264 197,-258 197,-252 197,-252 197,-224 197,-224 197,-218 203,-212 209,-212"/>
<text text-anchor="middle" x="232" y="-252.8" font-family="Helvetica,sans-Serif" font-weight="bold" font-size="9.00">views</text>
</g>
<!-- components/Button/Button -->
<g id="node1" class="node">
<title>components/Button/Button</title>
<g id="a_node1"><a xlink:title="Button">
<path fill="#ffffcc" stroke="red" d="M533.5,-42C533.5,-42 491.5,-42 491.5,-42 488.5,-42 485.5,-39 485.5,-36 485.5,-36 485.5,-30 485.5,-30 485.5,-27 488.5,-24 491.5,-24 491.5,-24 533.5,-24 533.5,-24 536.5,-24 539.5,-27 539.5,-30 539.5,-30 539.5,-36 539.5,-36 539.5,-39 536.5,-42 533.5,-42"/>
<text text-anchor="middle" x="512.5" y="-30.8" font-family="Helvetica,sans-Serif" font-size="9.00" fill="red">Button</text>
</a>
</g>
</g>
<!-- src/App.css -->
<g id="node2" class="node">
<title>src/App.css</title>
<g id="a_node2"><a xlink:href="src/App.css" xlink:title="App.css">
<path fill="#ffffcc" stroke="black" d="M253,-204C253,-204 211,-204 211,-204 208,-204 205,-201 205,-198 205,-198 205,-192 205,-192 205,-189 208,-186 211,-186 211,-186 253,-186 253,-186 256,-186 259,-189 259,-192 259,-192 259,-198 259,-198 259,-201 256,-204 253,-204"/>
<text text-anchor="start" x="215.5" y="-192.8" font-family="Helvetica,sans-Serif" font-size="9.00">App.css</text>
</a>
</g>
</g>
<!-- src/App.js -->
<g id="node3" class="node">
<title>src/App.js</title>
<g id="a_node3"><a xlink:href="src/App.js" xlink:title="App.js">
<path fill="#ffffcc" stroke="black" d="M164.5,-221C164.5,-221 122.5,-221 122.5,-221 119.5,-221 116.5,-218 116.5,-215 116.5,-215 116.5,-209 116.5,-209 116.5,-206 119.5,-203 122.5,-203 122.5,-203 164.5,-203 164.5,-203 167.5,-203 170.5,-206 170.5,-209 170.5,-209 170.5,-215 170.5,-215 170.5,-218 167.5,-221 164.5,-221"/>
<text text-anchor="start" x="130.5" y="-209.8" font-family="Helvetica,sans-Serif" font-size="9.00">App.js</text>
</a>
</g>
</g>
<!-- src/App.js&#45;&gt;src/App.css -->
<g id="edge1" class="edge">
<title>src/App.js&#45;&gt;src/App.css</title>
<path fill="none" stroke="#000000" stroke-width="2" stroke-opacity="0.200000" d="M170.92,-206.81C179.73,-205.08 189.63,-203.13 198.82,-201.32"/>
<polygon fill="#000000" fill-opacity="0.200000" stroke="#000000" stroke-width="2" stroke-opacity="0.200000" points="199.26,-203.38 204.74,-200.16 198.45,-199.26 199.26,-203.38"/>
</g>
<!-- src/views/Home.js -->
<g id="node4" class="node">
<title>src/views/Home.js</title>
<g id="a_node4"><a xlink:href="src/views/Home.js" xlink:title="Home.js">
<path fill="#ffffcc" stroke="black" d="M253,-238C253,-238 211,-238 211,-238 208,-238 205,-235 205,-232 205,-232 205,-226 205,-226 205,-223 208,-220 211,-220 211,-220 253,-220 253,-220 256,-220 259,-223 259,-226 259,-226 259,-232 259,-232 259,-235 256,-238 253,-238"/>
<text text-anchor="start" x="215" y="-226.8" font-family="Helvetica,sans-Serif" font-size="9.00">Home.js</text>
</a>
</g>
</g>
<!-- src/App.js&#45;&gt;src/views/Home.js -->
<g id="edge2" class="edge">
<title>src/App.js&#45;&gt;src/views/Home.js</title>
<path fill="none" stroke="#000000" stroke-width="2" stroke-opacity="0.200000" d="M170.92,-217.19C179.73,-218.92 189.63,-220.87 198.82,-222.68"/>
<polygon fill="#000000" fill-opacity="0.200000" stroke="#000000" stroke-width="2" stroke-opacity="0.200000" points="198.45,-224.74 204.74,-223.84 199.26,-220.62 198.45,-224.74"/>
</g>
<!-- src/assets/images/logo.svg -->
<g id="node6" class="node">
<title>src/assets/images/logo.svg</title>
<g id="a_node6"><a xlink:href="src/assets/images/logo.svg" xlink:title="logo.svg">
<path fill="#ffffcc" stroke="black" d="M339,-144C339,-144 297,-144 297,-144 294,-144 291,-141 291,-138 291,-138 291,-132 291,-132 291,-129 294,-126 297,-126 297,-126 339,-126 339,-126 342,-126 345,-129 345,-132 345,-132 345,-138 345,-138 345,-141 342,-144 339,-144"/>
<text text-anchor="start" x="300.5" y="-132.8" font-family="Helvetica,sans-Serif" font-size="9.00">logo.svg</text>
</a>
</g>
</g>
<!-- src/views/Home.js&#45;&gt;src/assets/images/logo.svg -->
<g id="edge13" class="edge">
<title>src/views/Home.js&#45;&gt;src/assets/images/logo.svg</title>
<path fill="none" stroke="#000000" stroke-width="2" stroke-opacity="0.200000" d="M259.23,-221.03C262.01,-219.6 264.66,-217.93 267,-216 288.84,-197.92 303.87,-167.68 311.4,-149.71"/>
<polygon fill="#000000" fill-opacity="0.200000" stroke="#000000" stroke-width="2" stroke-opacity="0.200000" points="313.36,-150.47 313.67,-144.12 309.47,-148.89 313.36,-150.47"/>
</g>
<!-- src/components/OddParent/OddParent.js -->
<g id="node9" class="node">
<title>src/components/OddParent/OddParent.js</title>
<g id="a_node9"><a xlink:href="src/components/OddParent/OddParent.js" xlink:title="OddParent.js">
<path fill="#ffffcc" stroke="black" d="M441,-238C441,-238 383,-238 383,-238 380,-238 377,-235 377,-232 377,-232 377,-226 377,-226 377,-223 380,-220 383,-220 383,-220 441,-220 441,-220 444,-220 447,-223 447,-226 447,-226 447,-232 447,-232 447,-235 444,-238 441,-238"/>
<text text-anchor="start" x="385" y="-226.8" font-family="Helvetica,sans-Serif" font-size="9.00">OddParent.js</text>
</a>
</g>
</g>
<!-- src/views/Home.js&#45;&gt;src/components/OddParent/OddParent.js -->
<g id="edge14" class="edge">
<title>src/views/Home.js&#45;&gt;src/components/OddParent/OddParent.js</title>
<path fill="none" stroke="#000000" stroke-width="2" stroke-opacity="0.200000" d="M259.26,-229C288.58,-229 336.37,-229 370.48,-229"/>
<polygon fill="#000000" fill-opacity="0.200000" stroke="#000000" stroke-width="2" stroke-opacity="0.200000" points="370.69,-231.1 376.69,-229 370.69,-226.9 370.69,-231.1"/>
</g>
<!-- src/components/Parent/Parent.js -->
<g id="node12" class="node">
<title>src/components/Parent/Parent.js</title>
<g id="a_node12"><a xlink:href="src/components/Parent/Parent.js" xlink:title="Parent.js">
<path fill="#ffffcc" stroke="black" d="M339,-282C339,-282 297,-282 297,-282 294,-282 291,-279 291,-276 291,-276 291,-270 291,-270 291,-267 294,-264 297,-264 297,-264 339,-264 339,-264 342,-264 345,-267 345,-270 345,-270 345,-276 345,-276 345,-279 342,-282 339,-282"/>
<text text-anchor="start" x="299.5" y="-270.8" font-family="Helvetica,sans-Serif" font-size="9.00">Parent.js</text>
</a>
</g>
</g>
<!-- src/views/Home.js&#45;&gt;src/components/Parent/Parent.js -->
<g id="edge15" class="edge">
<title>src/views/Home.js&#45;&gt;src/components/Parent/Parent.js</title>
<path fill="none" stroke="#000000" stroke-width="2" stroke-opacity="0.200000" d="M250.4,-238.12C263.02,-244.72 280.2,-253.73 293.96,-260.93"/>
<polygon fill="#000000" fill-opacity="0.200000" stroke="#000000" stroke-width="2" stroke-opacity="0.200000" points="293.33,-262.97 299.62,-263.89 295.28,-259.25 293.33,-262.97"/>
</g>
<!-- src/App.test.js -->
<g id="node5" class="node">
<title>src/App.test.js</title>
<g id="a_node5"><a xlink:href="src/App.test.js" xlink:title="App.test.js">
<path fill="#ffffcc" stroke="black" d="M74,-221C74,-221 27,-221 27,-221 24,-221 21,-218 21,-215 21,-215 21,-209 21,-209 21,-206 24,-203 27,-203 27,-203 74,-203 74,-203 77,-203 80,-206 80,-209 80,-209 80,-215 80,-215 80,-218 77,-221 74,-221"/>
<text text-anchor="start" x="29" y="-209.8" font-family="Helvetica,sans-Serif" font-size="9.00">App.test.js</text>
</a>
</g>
</g>
<!-- src/App.test.js&#45;&gt;src/App.js -->
<g id="edge3" class="edge">
<title>src/App.test.js&#45;&gt;src/App.js</title>
<path fill="none" stroke="#000000" stroke-width="2" stroke-opacity="0.200000" d="M80.29,-212C89.78,-212 100.38,-212 110.11,-212"/>
<polygon fill="#000000" fill-opacity="0.200000" stroke="#000000" stroke-width="2" stroke-opacity="0.200000" points="110.36,-214.1 116.36,-212 110.36,-209.9 110.36,-214.1"/>
</g>
<!-- src/components/Button/Button.js -->
<g id="node7" class="node">
<title>src/components/Button/Button.js</title>
<g id="a_node7"><a xlink:href="src/components/Button/Button.js" xlink:title="Button.js">
<path fill="#ffffcc" stroke="black" d="M433,-318C433,-318 391,-318 391,-318 388,-318 385,-315 385,-312 385,-312 385,-306 385,-306 385,-303 388,-300 391,-300 391,-300 433,-300 433,-300 436,-300 439,-303 439,-306 439,-306 439,-312 439,-312 439,-315 436,-318 433,-318"/>
<text text-anchor="start" x="394" y="-306.8" font-family="Helvetica,sans-Serif" font-size="9.00">Button.js</text>
</a>
</g>
</g>
<!-- src/components/emoji/EmojiCheck.js -->
<g id="node8" class="node">
<title>src/components/emoji/EmojiCheck.js</title>
<g id="a_node8"><a xlink:href="src/components/emoji/EmojiCheck.js" xlink:title="EmojiCheck.js">
<path fill="#ffffcc" stroke="black" d="M544,-328C544,-328 481,-328 481,-328 478,-328 475,-325 475,-322 475,-322 475,-316 475,-316 475,-313 478,-310 481,-310 481,-310 544,-310 544,-310 547,-310 550,-313 550,-316 550,-316 550,-322 550,-322 550,-325 547,-328 544,-328"/>
<text text-anchor="start" x="483" y="-316.8" font-family="Helvetica,sans-Serif" font-size="9.00">EmojiCheck.js</text>
</a>
</g>
</g>
<!-- src/components/Button/Button.js&#45;&gt;src/components/emoji/EmojiCheck.js -->
<g id="edge4" class="edge">
<title>src/components/Button/Button.js&#45;&gt;src/components/emoji/EmojiCheck.js</title>
<path fill="none" stroke="#000000" stroke-width="2" stroke-opacity="0.200000" d="M439.14,-311.65C448.2,-312.57 458.61,-313.63 468.66,-314.65"/>
<polygon fill="#000000" fill-opacity="0.200000" stroke="#000000" stroke-width="2" stroke-opacity="0.200000" points="468.68,-316.76 474.86,-315.28 469.1,-312.58 468.68,-316.76"/>
</g>
<!-- src/components/OddParent/OddParent.js&#45;&gt;components/Button/Button -->
<g id="edge7" class="edge">
<title>src/components/OddParent/OddParent.js&#45;&gt;components/Button/Button</title>
<path fill="none" stroke="#000000" stroke-width="2" stroke-opacity="0.200000" d="M417.62,-219.81C433.29,-188.63 484.52,-86.69 503.94,-48.04"/>
<polygon fill="#000000" fill-opacity="0.200000" stroke="#000000" stroke-width="2" stroke-opacity="0.200000" points="505.96,-48.7 506.78,-42.4 502.21,-46.82 505.96,-48.7"/>
</g>
<!-- src/components/emoji/EmojiWarning.js -->
<g id="node10" class="node">
<title>src/components/emoji/EmojiWarning.js</title>
<g id="a_node10"><a xlink:href="src/components/emoji/EmojiWarning.js" xlink:title="EmojiWarning.js">
<path fill="#ffffcc" stroke="black" d="M548,-298C548,-298 477,-298 477,-298 474,-298 471,-295 471,-292 471,-292 471,-286 471,-286 471,-283 474,-280 477,-280 477,-280 548,-280 548,-280 551,-280 554,-283 554,-286 554,-286 554,-292 554,-292 554,-295 551,-298 548,-298"/>
<text text-anchor="start" x="479" y="-286.8" font-family="Helvetica,sans-Serif" font-size="9.00">EmojiWarning.js</text>
</a>
</g>
</g>
<!-- src/components/OddParent/OddParent.js&#45;&gt;src/components/emoji/EmojiWarning.js -->
<g id="edge5" class="edge">
<title>src/components/OddParent/OddParent.js&#45;&gt;src/components/emoji/EmojiWarning.js</title>
<path fill="none" stroke="#000000" stroke-width="2" stroke-opacity="0.200000" d="M423.62,-238.19C433.42,-246.39 448.58,-258.4 463,-267 469.33,-270.77 476.42,-274.33 483.18,-277.44"/>
<polygon fill="#000000" fill-opacity="0.200000" stroke="#000000" stroke-width="2" stroke-opacity="0.200000" points="482.42,-279.4 488.76,-279.94 484.14,-275.57 482.42,-279.4"/>
</g>
<!-- src/components/Title/Title.js -->
<g id="node11" class="node">
<title>src/components/Title/Title.js</title>
<g id="a_node11"><a xlink:href="src/components/Title/Title.js" xlink:title="Title.js">
<path fill="#ffffcc" stroke="black" d="M533.5,-238C533.5,-238 491.5,-238 491.5,-238 488.5,-238 485.5,-235 485.5,-232 485.5,-232 485.5,-226 485.5,-226 485.5,-223 488.5,-220 491.5,-220 491.5,-220 533.5,-220 533.5,-220 536.5,-220 539.5,-223 539.5,-226 539.5,-226 539.5,-232 539.5,-232 539.5,-235 536.5,-238 533.5,-238"/>
<text text-anchor="start" x="499.5" y="-226.8" font-family="Helvetica,sans-Serif" font-size="9.00">Title.js</text>
</a>
</g>
</g>
<!-- src/components/OddParent/OddParent.js&#45;&gt;src/components/Title/Title.js -->
<g id="edge6" class="edge">
<title>src/components/OddParent/OddParent.js&#45;&gt;src/components/Title/Title.js</title>
<path fill="none" stroke="#000000" stroke-width="2" stroke-opacity="0.200000" d="M447.17,-229C457.57,-229 468.97,-229 479.23,-229"/>
<polygon fill="#000000" fill-opacity="0.200000" stroke="#000000" stroke-width="2" stroke-opacity="0.200000" points="479.46,-231.1 485.46,-229 479.46,-226.9 479.46,-231.1"/>
</g>
<!-- src/components/Parent/Parent.js&#45;&gt;src/components/Button/Button.js -->
<g id="edge8" class="edge">
<title>src/components/Parent/Parent.js&#45;&gt;src/components/Button/Button.js</title>
<path fill="none" stroke="#000000" stroke-width="2" stroke-opacity="0.200000" d="M342.22,-282.08C354.31,-286.82 369.22,-292.65 382.06,-297.67"/>
<polygon fill="#000000" fill-opacity="0.200000" stroke="#000000" stroke-width="2" stroke-opacity="0.200000" points="381.44,-299.69 387.79,-299.92 382.97,-295.78 381.44,-299.69"/>
</g>
<!-- src/components/Parent/Parent.js&#45;&gt;src/components/Title/Title.js -->
<g id="edge9" class="edge">
<title>src/components/Parent/Parent.js&#45;&gt;src/components/Title/Title.js</title>
<path fill="none" stroke="#000000" stroke-width="2" stroke-opacity="0.200000" d="M345.06,-275.95C373,-278.18 418.3,-279.09 455,-267 470.77,-261.81 486.25,-250.87 497.01,-242.06"/>
<polygon fill="#000000" fill-opacity="0.200000" stroke="#000000" stroke-width="2" stroke-opacity="0.200000" points="498.36,-243.66 501.6,-238.19 495.66,-240.45 498.36,-243.66"/>
</g>
<!-- src/index.css -->
<g id="node13" class="node">
<title>src/index.css</title>
<g id="a_node13"><a xlink:href="src/index.css" xlink:title="index.css">
<path fill="#ffffcc" stroke="black" d="M165,-251C165,-251 122,-251 122,-251 119,-251 116,-248 116,-245 116,-245 116,-239 116,-239 116,-236 119,-233 122,-233 122,-233 165,-233 165,-233 168,-233 171,-236 171,-239 171,-239 171,-245 171,-245 171,-248 168,-251 165,-251"/>
<text text-anchor="start" x="124" y="-239.8" font-family="Helvetica,sans-Serif" font-size="9.00">index.css</text>
</a>
</g>
</g>
<!-- src/index.js -->
<g id="node14" class="node">
<title>src/index.js</title>
<g id="a_node14"><a xlink:href="src/index.js" xlink:title="index.js">
<path fill="#ffffcc" stroke="black" d="M71.5,-251C71.5,-251 29.5,-251 29.5,-251 26.5,-251 23.5,-248 23.5,-245 23.5,-245 23.5,-239 23.5,-239 23.5,-236 26.5,-233 29.5,-233 29.5,-233 71.5,-233 71.5,-233 74.5,-233 77.5,-236 77.5,-239 77.5,-239 77.5,-245 77.5,-245 77.5,-248 74.5,-251 71.5,-251"/>
<text text-anchor="start" x="34.5" y="-239.8" font-family="Helvetica,sans-Serif" font-size="9.00">index.js</text>
</a>
</g>
</g>
<!-- src/index.js&#45;&gt;src/App.js -->
<g id="edge10" class="edge">
<title>src/index.js&#45;&gt;src/App.js</title>
<path fill="none" stroke="#000000" stroke-width="2" stroke-opacity="0.200000" d="M77.82,-233.32C88.01,-229.96 99.76,-226.09 110.44,-222.57"/>
<polygon fill="#000000" fill-opacity="0.200000" stroke="#000000" stroke-width="2" stroke-opacity="0.200000" points="111.2,-224.53 116.24,-220.66 109.88,-220.54 111.2,-224.53"/>
</g>
<!-- src/index.js&#45;&gt;src/index.css -->
<g id="edge11" class="edge">
<title>src/index.js&#45;&gt;src/index.css</title>
<path fill="none" stroke="#000000" stroke-width="2" stroke-opacity="0.200000" d="M77.82,-242C87.83,-242 99.34,-242 109.86,-242"/>
<polygon fill="#000000" fill-opacity="0.200000" stroke="#000000" stroke-width="2" stroke-opacity="0.200000" points="109.92,-244.1 115.92,-242 109.92,-239.9 109.92,-244.1"/>
</g>
<!-- src/reportWebVitals.js -->
<g id="node15" class="node">
<title>src/reportWebVitals.js</title>
<g id="a_node15"><a xlink:href="src/reportWebVitals.js" xlink:title="reportWebVitals.js">
<path fill="#ffffcc" stroke="black" d="M183,-281C183,-281 104,-281 104,-281 101,-281 98,-278 98,-275 98,-275 98,-269 98,-269 98,-266 101,-263 104,-263 104,-263 183,-263 183,-263 186,-263 189,-266 189,-269 189,-269 189,-275 189,-275 189,-278 186,-281 183,-281"/>
<text text-anchor="start" x="106" y="-269.8" font-family="Helvetica,sans-Serif" font-size="9.00">reportWebVitals.js</text>
</a>
</g>
</g>
<!-- src/index.js&#45;&gt;src/reportWebVitals.js -->
<g id="edge12" class="edge">
<title>src/index.js&#45;&gt;src/reportWebVitals.js</title>
<path fill="none" stroke="#000000" stroke-width="2" stroke-opacity="0.200000" d="M77.82,-250.68C87.56,-253.89 98.74,-257.57 109.03,-260.97"/>
<polygon fill="#000000" fill-opacity="0.200000" stroke="#000000" stroke-width="2" stroke-opacity="0.200000" points="108.62,-263.04 114.97,-262.92 109.93,-259.05 108.62,-263.04"/>
</g>
<!-- src/setupTests.js -->
<g id="node16" class="node">
<title>src/setupTests.js</title>
<g id="a_node16"><a xlink:href="src/setupTests.js" xlink:title="setupTests.js">
<path fill="#ccffcc" stroke="black" d="M79,-168C79,-168 22,-168 22,-168 19,-168 16,-165 16,-162 16,-162 16,-156 16,-156 16,-153 19,-150 22,-150 22,-150 79,-150 79,-150 82,-150 85,-153 85,-156 85,-156 85,-162 85,-162 85,-165 82,-168 79,-168"/>
<text text-anchor="start" x="24" y="-156.8" font-family="Helvetica,sans-Serif" font-size="9.00">setupTests.js</text>
</a>
</g>
</g>
</g>
</svg>
